<svg width="17" height="16" viewBox="0 0 17 16" fill="none" xmlns="http://www.w3.org/2000/svg">
<g clip-path="url(#clip0)">
<rect width="16" height="16" transform="translate(0.00878906)" fill="white"/>
<path fill-rule="evenodd" clip-rule="evenodd" d="M7.34191 2.1266C7.38796 1.98057 7.47936 1.85303 7.60284 1.76249C7.72633 1.67195 7.87546 1.62314 8.02857 1.62314C8.18169 1.62314 8.33082 1.67195 8.4543 1.76249C8.57779 1.85303 8.66919 1.98057 8.71524 2.1266L9.95524 5.93993H13.9552C14.1138 5.93394 14.27 5.98003 14.4 6.07116C14.5299 6.16229 14.6264 6.29345 14.6748 6.44461C14.7232 6.59577 14.7207 6.7586 14.6678 6.90824C14.6149 7.05787 14.5145 7.18608 14.3819 7.27327L11.1352 9.6266L12.3752 13.4466C12.4243 13.5921 12.4255 13.7495 12.3788 13.8957C12.332 14.042 12.2397 14.1695 12.1154 14.2596C11.991 14.3497 11.8412 14.3977 11.6876 14.3965C11.5341 14.3954 11.3849 14.3452 11.2619 14.2533L8.00857 11.8733L4.76191 14.2333C4.63891 14.3252 4.48975 14.3754 4.3362 14.3765C4.18266 14.3777 4.03277 14.3297 3.90842 14.2396C3.78408 14.1495 3.69179 14.022 3.64505 13.8757C3.5983 13.7295 3.59953 13.5721 3.64857 13.4266L4.88857 9.6066L1.64191 7.25327C1.5093 7.16608 1.40888 7.03787 1.35599 6.88824C1.3031 6.7386 1.30066 6.57577 1.34902 6.42461C1.39739 6.27345 1.49392 6.14229 1.62385 6.05116C1.75379 5.96003 1.90998 5.91394 2.06857 5.91993H6.06857L7.34191 2.1266Z" fill="black"/>
</g>
<defs>
<clipPath id="clip0">
<rect width="16" height="16" fill="white" transform="translate(0.00878906)"/>
</clipPath>
</defs>
</svg>
